<?xml version="1.0" standalone="yes"?>
<svg xmlns="http://www.w3.org/2000/svg" width="1024" height="1024">
<path style="fill:#387de9; stroke:none;" d="M448 32L448 64L384 64L384 128L320 128L320 160L288 160L288 168L288 172L288 174L288 178L288 182L288 183L288 186L288 192L256 192L256 256L224 256L224 258.056L224 262L224 267L224 275L224 276L224 284L224 292L224 293L224 295L224 297L224 298L224 300L224 302L224 304L224 305L224 310L224 316L224 317L224 318L224 350L224 355L224 379L224 384L224 385L224 395L224 400L224 403L224 407L224 415L224 425L224 426L224 435L224 445L224 480L257 480L257 512L321 512L321 494L321 487L321 482L321 472L321 468L321 458L321 456L321 455L321 444L321 438L321 433L321 427L321 395L321 390L321 384L320 383L317.944 383L290 383L289 382L289 372L289 368L289 364L289 360L289 354L290 353L353 353L353 321L385 321L385 317L385 307L385 275L385 267L385 251L385 244L385 240L385 238L385 235L385 231L385 225L386.5 225L406 225L410 225L412 225L414 224.972L414.944 224.944L415.944 224.75L416.5 224.722L418 224L417.417 221.944L417.222 220.944L417.083 220L417 218L417 216L417 212L417 211L417 210L417 209L417 207L417 201L417 193L438 193L440 193L441 193L443 193.028L444.889 193.278L445.694 193.667L446.222 193.861L447 195L448.5 194.5L449.056 194.194L451 193.472L452 193.25L453 193.083L455 193L457 193L459 193L464 193L480 193L542 193L543 194L543 200L543 201L543 209L543 214L543 216L542.972 217L542.917 218L542.611 219.944L542.25 221.5L542 223L537 223L536 223L535 223L531 223L529 223L528 223L511 223L511 239L511 242L511 246L511 248L510.972 249L510.917 250L510.611 251.944L510.25 253.5L510 255L508.5 255L506.944 255L447 255L447 266L447 274L447 278L447 284L447 288L448 289L470 289L575 289L575 291.056L575 293L575 294L575 295L575 320L576 321L638 321L638.25 322.5L638.611 324.056L638.917 326L638.972 327L639 328L639 330L639 337L639 344L639 352L640 353L642.056 353L644 353L648 353L650 353L653 353L658 353L662 353L665 353L670 353L671 354L671 356.056L671 357.056L671 368L671 384L672 385L675.056 385L678 385L686 385L702 385L703 386L703 387.5L703 388.056L703 404L703 405L703 415L703 462L703 470L703 477L703 482L703 490L703 499L703 504L703 512L708 512L716 512L724 512L730.944 512L734 512L734 606L733 607L723 607L715 607L711 607L703 607L703 609.056L703 612L703 640L708 640L716 640L724 640L730.944 640L734 640L734 608L745 608L758 608L763 608L767 608L767 480L771 480L776 480L780 480L784 480L786 480L790 480L796 480L800 480L800 224L768 224L768 192L736 192L736 160L704 160L704 128L640 128L640 64L576 64L576 32L448 32z"/>
<path style="fill:#f10708; stroke:none;" d="M545 161L544.028 162.5L543.444 164.056L543.083 166L543 168L543 169L543 171L543 174L543 182L543 186L543 191L575 191L575 188.944L575 187.944L575 186L575 184L575 179L575 175L575 173L575 170L575 162L574 161L568 161L566 161L564 161L562 161L559 161L555 161L551 161L545 161M447 195L447 203L447 211L447 216L447 219L447 223L429 223L424 223L422 223L421 223.028L420 223.111L418 223.611L416 224.389L414 224.889L413 224.972L411 225L409 225L403 225L385 225L385 289L448 289L447.417 286.944L447.222 285.944L447.083 285L447 283L447 281L447 275L447 271L447 255L448.5 255L450.056 255L510 255L510.583 252.944L510.778 251.944L510.917 251L511 249L511 247L511 241L511 237L511 223L542 223L542.583 220.944L542.778 219.944L542.917 219L543 217L543 215L543 210L543 194L542 193L539.944 193L476 193L460 193L457 193L455 193L454 193L452 193.083L450.056 193.444L448.5 194.028L447 195M481 289L481 321L543 321L543 353L607 353L607 361L607 371L607 372L607 401L607 402L607 406L607 410L607 412L607 413L607 414L607 419L607 427L607 435L607 440L607 443.944L607 447L575 447L575 479L619 479L637 479L641 479L646 479L648 479L656 479L661 479L668 479L668.361 480.139L668.667 480.333L669.611 480.889L671 481L671 488L671 496L671 503L671 505L670.972 506L670.917 507L670.611 508.944L670.25 510.5L670 512L639 512L639 542L638 543L625 543L607 543L607 575L575 575L575 543L571.944 543L546 543L545.472 541.5L545.111 540.944L544.611 539.944L544.083 539L543.306 537L543.028 535L543 534L543 532L543 530L543 525L543 502L543 490L543 487L543 486L543 485L543.083 483L543.222 482.056L543.417 481.056L544 479L540.944 479L519 479L514 479L481 479L481 512L458 512L456 512L455 512L453 512.111L452.028 512.333L450.333 513.333L449.722 514.111L449.333 515.028L449.028 517L449 518L449 520L449 521L449 523L449 530L449 533L449 534L449 535L448.917 537L448.5 538.972L447.5 540.75L445.917 542.056L444.972 542.5L443 542.917L442 542.972L440 543L439 543L438 543L435 543L428 543L385 543L385 575L449 575L449 545L481 545L481 512L512 512L512 602L512 625L512 628L512 630L512 632L512.083 634L512.444 635.944L513.028 637.5L514 639L542 639L542.583 636.944L542.778 635.944L542.917 635L543 633L543 631L543 626L543 608L544 607L564 607L566 607L568 607.028L569 607.083L570.972 607.5L572.75 608.5L574.056 610.083L574.5 611.028L574.917 613L575 615L575 616L575 618L575 625L575 670L574 671L569 671L565 671L542 671L541 671L539 671L534 671L532 671L527 671L512 671L512 703L531 703L557 703L564 703L566 703L567 703L569 703.083L570.972 703.5L571.917 703.944L573.5 705.25L574.5 707.028L574.917 709L574.972 710L575 712L575 714L575 724L575 726L575 727L574.972 729L574.917 730L574.611 731.944L574.25 733.5L574 735L567 735L562 735L554 735L544 735L539 735L536 735L532 735L531 735L523 735L522 735L505 735L481 735L481 769L543 769L543 813L543 820L543 823L543 824L543.083 826L543.5 827.917L543.944 828.75L544.5 829.5L545.25 830.056L546.083 830.5L548 830.917L550 831L551 831L554 831L561 831L564 831L601 831L606 831L607 830L607 800L608 799L612 799L622 799L638 799L639 798L639 768L640 767L645 767L651 767L652 767L653 767L661 767L665 767L671 767L671 735L703 735L703 607L708 607L713 607L715 607L723 607L733 607L734 606L734 512L731.944 512L727 512L723 512L715 512L710 512L707 512L703 512L703 510.5L703 508L703 453L703 427L703 426L703 410L703 390L703 386L702 385L693 385L692 385L688 385L672 385L671 384L671 381.944L671 380L671 376L671 374L671 371L671 366L671 362L671 359L671 354L670 353L667.944 353L666.944 353L656 353L640 353L639 352L639 344L639 334L639 332L639 329L639 327L638.917 325L638.778 324.056L638.583 323.056L638 321L612 321L576 321L575 320L575 317.944L575 316L575 315L575 314L575 312L575 309L575 303L575 302L575 297L575 289L573.5 289L567 289L561 289L548 289L540 289L538 289L530 289L525 289L518 289L481 289M257 321L257 326L257 333L257 341L257 344L257 350L258 351L259.5 351L286 351L287 350L287 346L287 341L287 340L287 322L286 321L257 321M290 353L289 354L289 359L289 364L289 378.944L289 382L290 383L293.056 383L308 383L313 383L315 383L317 383.083L317.944 383.222L318.944 383.417L321 384L321 382.5L321 371L321 363L321 359L321 353L319.5 353L290 353M353 479L353 512L321 512L321 545L353 545L353 512L385 512L385 499L385 479L353 479z"/>
<path style="fill:#387de9; stroke:none;" d="M385 479L385 512L353 512L353 545L361 545L363 545L365 544.972L366 544.917L368 544.611L369 544.389L371 544.083L372 544.028L374 544L377 544L385 544L385 512L416 512L416 543L439 543L441 543L442 543L444 542.917L444.972 542.75L446.75 542.056L447.5 541.5L448.056 540.75L448.75 538.972L448.917 538L449 536L449 534L449 533L449 531L449 524L449 522L449 521L449 519L449.028 518L449.111 517L449.722 515.028L450.333 514.111L452.028 512.722L454 512.111L455 512.028L456 512L457 512L459 512L481 512L481 499L481 479L385 479M544 479L543 480L543 481.5L543 500L543 522L543 532L543 534L543 535L543.028 536L543.306 538L544.056 539.944L544.639 540.944L544.944 541.5L546 543L548.056 543L549.056 543L575 543L575 540.944L575 539L575 538L575 537L575 512L607 512L607 543L611 543L612 543L620 543L638 543L639 542L639 512L652 512L656 512L660 512L664 512L670 512L670.583 509.944L670.778 508.944L670.917 508L671 506L671 504L671 499L671 481L669.25 480.333L668.722 480.139L668 479L664.944 479L664 479L648 479L645 479L641 479L636 479L633 479L629 479L628 479L606 479L605 479L604 479L576 479L544 479z"/>
<path style="fill:#f10708; stroke:none;" d="M257 512L257 608L289 608L289 640L321 640L321 735L353 735L353 768L385 768L385 735L353 735L353 639L321 639L321 607L289 607L289 602L289 512L257 512M671 545L671 607L607 607L607 575L639 575L639 545L671 545z"/>
<path style="fill:#387de9; stroke:none;" d="M544 607L543 608L543 623L543 630L543 632L542.972 633L542.917 634L542.611 635.944L542.25 637.5L542 639L514 639L513 637L513 636L512.278 636.722L512.25 637.25L512 639L481 639L481 671L518 671L574 671L575 670L575 625L575 618L575 615L575 614L574.917 612L574.5 610.083L574.056 609.25L573.5 608.5L572.75 607.944L570.972 607.25L570 607.083L568 607L567 607L565 607L556 607L552 607L544 607z"/>
<path style="fill:#f10708; stroke:none;" d="M449 639L449 671L481 671L481 639L449 639z"/>
<path style="fill:#387de9; stroke:none;" d="M449 703L449 735L574 735L574.583 732.944L574.778 731.944L574.917 731L575 729L575 728L575 727L575 724L575 723L575 713L575 711L575 710L574.917 708L574.75 707.028L574.056 705.25L573.5 704.5L572.75 703.944L570.972 703.25L570 703.083L568 703L567 703L565 703L542 703L540 703L539 703L507 703L449 703M640 767L639 768L639 798L638 799L628 799L622 799L621 799L608 799L607 800L607 830L606 831L592 831L585 831L561 831L556 831L554 831L553 831L551 831L549 830.917L547.028 830.5L545.306 829.556L544.778 829.222L544 828L543.167 828.75L542.917 829.194L541.694 830.306L539.972 830.889L539 830.972L538 831L536 831L535 831L533 831L526 831L521 831L514 831L480 831L480.583 833.056L480.778 834.056L480.917 835L481 837L481 838L481 839L481 841L481 852L481 855L481 856L481 857L481.083 859L481.222 859.944L481.417 860.944L482 863L512 863L512 894L514.056 894.583L515.056 894.778L516 894.917L518 895L519 895L520 895L523 895L534 895L552 895L572 895L572.361 896.222L573.278 897.139L573.611 897.472L575 898L575 926L574 927L561 927L551 927L546 927L539 927L450 927L449.75 925.5L449.389 923.944L449.083 922L449.028 921L449 920L449 918L449 911L449 896L448 895L417 895L417 864L416 863L401 863L394 863L392 863L391 862.972L390 862.917L388.056 862.611L386.5 862.25L385 862L385 831L353 831L353 863L289 863L289 927L385 927L385 959L444 959L606 959L620 959L639 959L639 927L655 927L658 927L663 927L667 927L673 927L675 927L679 927L681 927L686 927L688 927L696 927L700 927L706 927L711 927L712 927L716 927L722 927L727 927L735 927L735 895L767 895L767 863L703 863L703 831L671 831L671 767L666 767L658 767L650 767L646 767L640 767z"/>
<path style="fill:#f10708; stroke:none;" d="M385 799L385 862L387.056 862.583L388.056 862.778L389 862.917L391 863L393 863L398 863L416 863L417 864L417 895L448 895L449 896L449 914L449 919L449 921L449.083 923L449.222 923.944L449.417 924.944L450 927L574 927L575 926L575 898L573.25 896.583L572.722 896.194L572 895L536 895L531 895L529 895L524 895L521 895L520 895L518 894.972L517 894.917L515.056 894.611L513.5 894.25L512 894L512 863L482 863L481.75 861.5L481.389 859.944L481.083 858L481.028 857L481 856L481 854L481 847L481 832L480 831L449 831L449 799L385 799z"/>
</svg>
