<?xml version="1.0" encoding="utf-8" ?>
<svg baseProfile="full" height="32" shape-rendering="crispEdges" version="1.1" width="32" xmlns="http://www.w3.org/2000/svg" xmlns:ev="http://www.w3.org/2001/xml-events" xmlns:xlink="http://www.w3.org/1999/xlink"><defs /><rect fill="#3e82f1" height="1" width="1" x="14" y="1" /><rect fill="#3e82f1" height="1" width="1" x="15" y="1" /><rect fill="#3e82f1" height="1" width="1" x="16" y="1" /><rect fill="#3e82f1" height="1" width="1" x="17" y="1" /><rect fill="#3e82f1" height="1" width="1" x="12" y="2" /><rect fill="#3e82f1" height="1" width="1" x="13" y="2" /><rect fill="#3e82f1" height="1" width="1" x="14" y="2" /><rect fill="#3e82f1" height="1" width="1" x="15" y="2" /><rect fill="#3e82f1" height="1" width="1" x="16" y="2" /><rect fill="#3e82f1" height="1" width="1" x="17" y="2" /><rect fill="#3e82f1" height="1" width="1" x="18" y="2" /><rect fill="#3e82f1" height="1" width="1" x="19" y="2" /><rect fill="#3e82f1" height="1" width="1" x="12" y="3" /><rect fill="#3e82f1" height="1" width="1" x="13" y="3" /><rect fill="#3e82f1" height="1" width="1" x="14" y="3" /><rect fill="#3e82f1" height="1" width="1" x="15" y="3" /><rect fill="#3e82f1" height="1" width="1" x="16" y="3" /><rect fill="#3e82f1" height="1" width="1" x="17" y="3" /><rect fill="#3e82f1" height="1" width="1" x="18" y="3" /><rect fill="#3e82f1" height="1" width="1" x="19" y="3" /><rect fill="#3e82f1" height="1" width="1" x="10" y="4" /><rect fill="#3e82f1" height="1" width="1" x="11" y="4" /><rect fill="#3e82f1" height="1" width="1" x="12" y="4" /><rect fill="#3e82f1" height="1" width="1" x="13" y="4" /><rect fill="#3e82f1" height="1" width="1" x="14" y="4" /><rect fill="#3e82f1" height="1" width="1" x="15" y="4" /><rect fill="#3e82f1" height="1" width="1" x="16" y="4" /><rect fill="#3e82f1" height="1" width="1" x="17" y="4" /><rect fill="#3e82f1" height="1" width="1" x="18" y="4" /><rect fill="#3e82f1" height="1" width="1" x="19" y="4" /><rect fill="#3e82f1" height="1" width="1" x="20" y="4" /><rect fill="#3e82f1" height="1" width="1" x="21" y="4" /><rect fill="#3e82f1" height="1" width="1" x="9" y="5" /><rect fill="#3e82f1" height="1" width="1" x="10" y="5" /><rect fill="#3e82f1" height="1" width="1" x="11" y="5" /><rect fill="#3e82f1" height="1" width="1" x="12" y="5" /><rect fill="#3e82f1" height="1" width="1" x="13" y="5" /><rect fill="#3e82f1" height="1" width="1" x="14" y="5" /><rect fill="#3e82f1" height="1" width="1" x="15" y="5" /><rect fill="#3e82f1" height="1" width="1" x="16" y="5" /><rect fill="#b9d3e4" height="1" width="1" x="17" y="5" /><rect fill="#3e82f1" height="1" width="1" x="18" y="5" /><rect fill="#3e82f1" height="1" width="1" x="19" y="5" /><rect fill="#3e82f1" height="1" width="1" x="20" y="5" /><rect fill="#3e82f1" height="1" width="1" x="21" y="5" /><rect fill="#3e82f1" height="1" width="1" x="22" y="5" /><rect fill="#3e82f1" height="1" width="1" x="8" y="6" /><rect fill="#3e82f1" height="1" width="1" x="9" y="6" /><rect fill="#3e82f1" height="1" width="1" x="10" y="6" /><rect fill="#3e82f1" height="1" width="1" x="11" y="6" /><rect fill="#3e82f1" height="1" width="1" x="12" y="6" /><rect fill="#b9d3e4" height="1" width="1" x="14" y="6" /><rect fill="#b9d3e4" height="1" width="1" x="15" y="6" /><rect fill="#b9d3e4" height="1" width="1" x="16" y="6" /><rect fill="#3e82f1" height="1" width="1" x="17" y="6" /><rect fill="#3e82f1" height="1" width="1" x="18" y="6" /><rect fill="#3e82f1" height="1" width="1" x="19" y="6" /><rect fill="#3e82f1" height="1" width="1" x="20" y="6" /><rect fill="#3e82f1" height="1" width="1" x="21" y="6" /><rect fill="#3e82f1" height="1" width="1" x="22" y="6" /><rect fill="#3e82f1" height="1" width="1" x="23" y="6" /><rect fill="#3e82f1" height="1" width="1" x="8" y="7" /><rect fill="#3e82f1" height="1" width="1" x="9" y="7" /><rect fill="#3e82f1" height="1" width="1" x="10" y="7" /><rect fill="#3e82f1" height="1" width="1" x="11" y="7" /><rect fill="#b9d3e4" height="1" width="1" x="12" y="7" /><rect fill="#b9d3e4" height="1" width="1" x="13" y="7" /><rect fill="#b9d3e4" height="1" width="1" x="14" y="7" /><rect fill="#b9d3e4" height="1" width="1" x="15" y="7" /><rect fill="#3e82f1" height="1" width="1" x="16" y="7" /><rect fill="#3e82f1" height="1" width="1" x="17" y="7" /><rect fill="#3e82f1" height="1" width="1" x="18" y="7" /><rect fill="#3e82f1" height="1" width="1" x="19" y="7" /><rect fill="#3e82f1" height="1" width="1" x="20" y="7" /><rect fill="#3e82f1" height="1" width="1" x="21" y="7" /><rect fill="#3e82f1" height="1" width="1" x="22" y="7" /><rect fill="#3e82f1" height="1" width="1" x="23" y="7" /><rect fill="#3e82f1" height="1" width="1" x="24" y="7" /><rect fill="#3e82f1" height="1" width="1" x="7" y="8" /><rect fill="#3e82f1" height="1" width="1" x="8" y="8" /><rect fill="#3e82f1" height="1" width="1" x="9" y="8" /><rect fill="#3e82f1" height="1" width="1" x="10" y="8" /><rect fill="#3e82f1" height="1" width="1" x="11" y="8" /><rect fill="#b9d3e4" height="1" width="1" x="12" y="8" /><rect fill="#b9d3e4" height="1" width="1" x="13" y="8" /><rect fill="#3e82f1" height="1" width="1" x="14" y="8" /><rect fill="#3e82f1" height="1" width="1" x="15" y="8" /><rect fill="#3e82f1" height="1" width="1" x="16" y="8" /><rect fill="#3e82f1" height="1" width="1" x="17" y="8" /><rect fill="#3e82f1" height="1" width="1" x="18" y="8" /><rect fill="#3e82f1" height="1" width="1" x="19" y="8" /><rect fill="#3e82f1" height="1" width="1" x="20" y="8" /><rect fill="#3e82f1" height="1" width="1" x="21" y="8" /><rect fill="#3e82f1" height="1" width="1" x="22" y="8" /><rect fill="#3e82f1" height="1" width="1" x="23" y="8" /><rect fill="#3e82f1" height="1" width="1" x="24" y="8" /><rect fill="#3e82f1" height="1" width="1" x="7" y="9" /><rect fill="#3e82f1" height="1" width="1" x="8" y="9" /><rect fill="#3e82f1" height="1" width="1" x="9" y="9" /><rect fill="#3e82f1" height="1" width="1" x="10" y="9" /><rect fill="#3e82f1" height="1" width="1" x="11" y="9" /><rect fill="#b9d3e4" height="1" width="1" x="15" y="9" /><rect fill="#b9d3e4" height="1" width="1" x="16" y="9" /><rect fill="#b9d3e4" height="1" width="1" x="17" y="9" /><rect fill="#3e82f1" height="1" width="1" x="18" y="9" /><rect fill="#3e82f1" height="1" width="1" x="19" y="9" /><rect fill="#3e82f1" height="1" width="1" x="20" y="9" /><rect fill="#3e82f1" height="1" width="1" x="21" y="9" /><rect fill="#3e82f1" height="1" width="1" x="22" y="9" /><rect fill="#3e82f1" height="1" width="1" x="23" y="9" /><rect fill="#3e82f1" height="1" width="1" x="24" y="9" /><rect fill="#3e82f1" height="1" width="1" x="7" y="10" /><rect fill="#b9d3e4" height="1" width="1" x="8" y="10" /><rect fill="#3e82f1" height="1" width="1" x="9" y="10" /><rect fill="#3e82f1" height="1" width="1" x="10" y="10" /><rect fill="#b9d3e4" height="1" width="1" x="17" y="10" /><rect fill="#b9d3e4" height="1" width="1" x="18" y="10" /><rect fill="#b9d3e4" height="1" width="1" x="19" y="10" /><rect fill="#3e82f1" height="1" width="1" x="20" y="10" /><rect fill="#3e82f1" height="1" width="1" x="21" y="10" /><rect fill="#3e82f1" height="1" width="1" x="22" y="10" /><rect fill="#3e82f1" height="1" width="1" x="23" y="10" /><rect fill="#3e82f1" height="1" width="1" x="24" y="10" /><rect fill="#3e82f1" height="1" width="1" x="7" y="11" /><rect fill="#3e82f1" height="1" width="1" x="8" y="11" /><rect fill="#b9d3e4" height="1" width="1" x="9" y="11" /><rect fill="#b9d3e4" height="1" width="1" x="19" y="11" /><rect fill="#b9d3e4" height="1" width="1" x="20" y="11" /><rect fill="#3e82f1" height="1" width="1" x="21" y="11" /><rect fill="#3e82f1" height="1" width="1" x="22" y="11" /><rect fill="#3e82f1" height="1" width="1" x="23" y="11" /><rect fill="#3e82f1" height="1" width="1" x="24" y="11" /><rect fill="#3e82f1" height="1" width="1" x="7" y="12" /><rect fill="#3e82f1" height="1" width="1" x="8" y="12" /><rect fill="#3e82f1" height="1" width="1" x="9" y="12" /><rect fill="#b9d3e4" height="1" width="1" x="19" y="12" /><rect fill="#b9d3e4" height="1" width="1" x="20" y="12" /><rect fill="#b9d3e4" height="1" width="1" x="21" y="12" /><rect fill="#3e82f1" height="1" width="1" x="22" y="12" /><rect fill="#3e82f1" height="1" width="1" x="23" y="12" /><rect fill="#3e82f1" height="1" width="1" x="24" y="12" /><rect fill="#3e82f1" height="1" width="1" x="7" y="13" /><rect fill="#3e82f1" height="1" width="1" x="8" y="13" /><rect fill="#3e82f1" height="1" width="1" x="9" y="13" /><rect fill="#b9d3e4" height="1" width="1" x="19" y="13" /><rect fill="#b9d3e4" height="1" width="1" x="20" y="13" /><rect fill="#b9d3e4" height="1" width="1" x="21" y="13" /><rect fill="#3e82f1" height="1" width="1" x="22" y="13" /><rect fill="#3e82f1" height="1" width="1" x="23" y="13" /><rect fill="#3e82f1" height="1" width="1" x="24" y="13" /><rect fill="#3e82f1" height="1" width="1" x="7" y="14" /><rect fill="#3e82f1" height="1" width="1" x="8" y="14" /><rect fill="#3e82f1" height="1" width="1" x="9" y="14" /><rect fill="#b9d3e4" height="1" width="1" x="18" y="14" /><rect fill="#b9d3e4" height="1" width="1" x="19" y="14" /><rect fill="#b9d3e4" height="1" width="1" x="20" y="14" /><rect fill="#b9d3e4" height="1" width="1" x="21" y="14" /><rect fill="#3e82f1" height="1" width="1" x="22" y="14" /><rect fill="#3e82f1" height="1" width="1" x="23" y="14" /><rect fill="#3e82f1" height="1" width="1" x="24" y="14" /><rect fill="#b9d3e4" height="1" width="1" x="27" y="14" /><rect fill="#3e82f1" height="1" width="1" x="8" y="15" /><rect fill="#3e82f1" height="1" width="1" x="9" y="15" /><rect fill="#b9d3e4" height="1" width="1" x="11" y="15" /><rect fill="#3e82f1" height="1" width="1" x="12" y="15" /><rect fill="#3e82f1" height="1" width="1" x="13" y="15" /><rect fill="#3e82f1" height="1" width="1" x="14" y="15" /><rect fill="#b9d3e4" height="1" width="1" x="15" y="15" /><rect fill="#b9d3e4" height="1" width="1" x="16" y="15" /><rect fill="#3e82f1" height="1" width="1" x="17" y="15" /><rect fill="#3e82f1" height="1" width="1" x="18" y="15" /><rect fill="#3e82f1" height="1" width="1" x="19" y="15" /><rect fill="#3e82f1" height="1" width="1" x="20" y="15" /><rect fill="#b9d3e4" height="1" width="1" x="21" y="15" /><rect fill="#3e82f1" height="1" width="1" x="22" y="15" /><rect fill="#3e82f1" height="1" width="1" x="23" y="15" /><rect fill="#b9d3e4" height="1" width="1" x="26" y="15" /><rect fill="#b9d3e4" height="1" width="1" x="29" y="15" /><rect fill="#b9d3e4" height="1" width="1" x="8" y="16" /><rect fill="#b9d3e4" height="1" width="1" x="10" y="16" /><rect fill="#3e82f1" height="1" width="1" x="11" y="16" /><rect fill="#3e82f1" height="1" width="1" x="13" y="16" /><rect fill="#b9d3e4" height="1" width="1" x="14" y="16" /><rect fill="#b9d3e4" height="1" width="1" x="16" y="16" /><rect fill="#3e82f1" height="1" width="1" x="17" y="16" /><rect fill="#3e82f1" height="1" width="1" x="19" y="16" /><rect fill="#b9d3e4" height="1" width="1" x="20" y="16" /><rect fill="#b9d3e4" height="1" width="1" x="21" y="16" /><rect fill="#b9d3e4" height="1" width="1" x="22" y="16" /><rect fill="#3e82f1" height="1" width="1" x="23" y="16" /><rect fill="#b9d3e4" height="1" width="1" x="28" y="16" /><rect fill="#3e82f1" height="1" width="1" x="29" y="16" /><rect fill="#b9d3e4" height="1" width="1" x="8" y="17" /><rect fill="#b9d3e4" height="1" width="1" x="12" y="17" /><rect fill="#b9d3e4" height="1" width="1" x="13" y="17" /><rect fill="#b9d3e4" height="1" width="1" x="16" y="17" /><rect fill="#b9d3e4" height="1" width="1" x="17" y="17" /><rect fill="#b9d3e4" height="1" width="1" x="19" y="17" /><rect fill="#b9d3e4" height="1" width="1" x="21" y="17" /><rect fill="#b9d3e4" height="1" width="1" x="22" y="17" /><rect fill="#3e82f1" height="1" width="1" x="23" y="17" /><rect fill="#3e82f1" height="1" width="1" x="26" y="17" /><rect fill="#b9d3e4" height="1" width="1" x="8" y="18" /><rect fill="#b9d3e4" height="1" width="1" x="16" y="18" /><rect fill="#b9d3e4" height="1" width="1" x="17" y="18" /><rect fill="#b9d3e4" height="1" width="1" x="18" y="18" /><rect fill="#b9d3e4" height="1" width="1" x="21" y="18" /><rect fill="#b9d3e4" height="1" width="1" x="22" y="18" /><rect fill="#3e82f1" height="1" width="1" x="23" y="18" /><rect fill="#b9d3e4" height="1" width="1" x="9" y="19" /><rect fill="#b9d3e4" height="1" width="1" x="16" y="19" /><rect fill="#3e82f1" height="1" width="1" x="17" y="19" /><rect fill="#b9d3e4" height="1" width="1" x="18" y="19" /><rect fill="#b9d3e4" height="1" width="1" x="19" y="19" /><rect fill="#b9d3e4" height="1" width="1" x="20" y="19" /><rect fill="#b9d3e4" height="1" width="1" x="21" y="19" /><rect fill="#3e82f1" height="1" width="1" x="22" y="19" /><rect fill="#3e82f1" height="1" width="1" x="24" y="19" /><rect fill="#3e82f1" height="1" width="1" x="25" y="19" /><rect fill="#3e82f1" height="1" width="1" x="26" y="19" /><rect fill="#3e82f1" height="1" width="1" x="27" y="19" /><rect fill="#3e82f1" height="1" width="1" x="28" y="19" /><rect fill="#3e82f1" height="1" width="1" x="29" y="19" /><rect fill="#b9d3e4" height="1" width="1" x="10" y="20" /><rect fill="#b9d3e4" height="1" width="1" x="14" y="20" /><rect fill="#3e82f1" height="1" width="1" x="15" y="20" /><rect fill="#3e82f1" height="1" width="1" x="16" y="20" /><rect fill="#3e82f1" height="1" width="1" x="17" y="20" /><rect fill="#b9d3e4" height="1" width="1" x="18" y="20" /><rect fill="#b9d3e4" height="1" width="1" x="19" y="20" /><rect fill="#b9d3e4" height="1" width="1" x="20" y="20" /><rect fill="#b9d3e4" height="1" width="1" x="21" y="20" /><rect fill="#3e82f1" height="1" width="1" x="25" y="20" /><rect fill="#3e82f1" height="1" width="1" x="28" y="20" /><rect fill="#b9d3e4" height="1" width="1" x="10" y="21" /><rect fill="#b9d3e4" height="1" width="1" x="16" y="21" /><rect fill="#b9d3e4" height="1" width="1" x="17" y="21" /><rect fill="#b9d3e4" height="1" width="1" x="18" y="21" /><rect fill="#b9d3e4" height="1" width="1" x="19" y="21" /><rect fill="#b9d3e4" height="1" width="1" x="20" y="21" /><rect fill="#b9d3e4" height="1" width="1" x="21" y="21" /><rect fill="#3e82f1" height="1" width="1" x="25" y="21" /><rect fill="#3e82f1" height="1" width="1" x="28" y="21" /><rect fill="#b9d3e4" height="1" width="1" x="10" y="22" /><rect fill="#3e82f1" height="1" width="1" x="14" y="22" /><rect fill="#3e82f1" height="1" width="1" x="15" y="22" /><rect fill="#3e82f1" height="1" width="1" x="16" y="22" /><rect fill="#3e82f1" height="1" width="1" x="17" y="22" /><rect fill="#b9d3e4" height="1" width="1" x="18" y="22" /><rect fill="#b9d3e4" height="1" width="1" x="19" y="22" /><rect fill="#b9d3e4" height="1" width="1" x="20" y="22" /><rect fill="#b9d3e4" height="1" width="1" x="21" y="22" /><rect fill="#3e82f1" height="1" width="1" x="25" y="22" /><rect fill="#3e82f1" height="1" width="1" x="28" y="22" /><rect fill="#b9d3e4" height="1" width="1" x="11" y="23" /><rect fill="#b9d3e4" height="1" width="1" x="15" y="23" /><rect fill="#b9d3e4" height="1" width="1" x="16" y="23" /><rect fill="#b9d3e4" height="1" width="1" x="17" y="23" /><rect fill="#b9d3e4" height="1" width="1" x="18" y="23" /><rect fill="#b9d3e4" height="1" width="1" x="19" y="23" /><rect fill="#b9d3e4" height="1" width="1" x="20" y="23" /><rect fill="#3e82f1" height="1" width="1" x="25" y="23" /><rect fill="#3e82f1" height="1" width="1" x="26" y="23" /><rect fill="#3e82f1" height="1" width="1" x="27" y="23" /><rect fill="#3e82f1" height="1" width="1" x="28" y="23" /><rect fill="#b9d3e4" height="1" width="1" x="17" y="24" /><rect fill="#b9d3e4" height="1" width="1" x="18" y="24" /><rect fill="#b9d3e4" height="1" width="1" x="19" y="24" /><rect fill="#3e82f1" height="1" width="1" x="20" y="24" /><rect fill="#3e82f1" height="1" width="1" x="25" y="24" /><rect fill="#3e82f1" height="1" width="1" x="27" y="24" /><rect fill="#3e82f1" height="1" width="1" x="28" y="24" /><rect fill="#b9d3e4" height="1" width="1" x="12" y="25" /><rect fill="#b9d3e4" height="1" width="1" x="13" y="25" /><rect fill="#b9d3e4" height="1" width="1" x="17" y="25" /><rect fill="#b9d3e4" height="1" width="1" x="18" y="25" /><rect fill="#3e82f1" height="1" width="1" x="19" y="25" /><rect fill="#3e82f1" height="1" width="1" x="20" y="25" /><rect fill="#3e82f1" height="1" width="1" x="25" y="25" /><rect fill="#3e82f1" height="1" width="1" x="27" y="25" /><rect fill="#3e82f1" height="1" width="1" x="28" y="25" /><rect fill="#3e82f1" height="1" width="1" x="11" y="26" /><rect fill="#b9d3e4" height="1" width="1" x="12" y="26" /><rect fill="#b9d3e4" height="1" width="1" x="13" y="26" /><rect fill="#b9d3e4" height="1" width="1" x="14" y="26" /><rect fill="#3e82f1" height="1" width="1" x="15" y="26" /><rect fill="#3e82f1" height="1" width="1" x="16" y="26" /><rect fill="#3e82f1" height="1" width="1" x="17" y="26" /><rect fill="#3e82f1" height="1" width="1" x="18" y="26" /><rect fill="#3e82f1" height="1" width="1" x="19" y="26" /><rect fill="#3e82f1" height="1" width="1" x="20" y="26" /><rect fill="#3e82f1" height="1" width="1" x="21" y="26" /><rect fill="#3e82f1" height="1" width="1" x="25" y="26" /><rect fill="#3e82f1" height="1" width="1" x="27" y="26" /><rect fill="#3e82f1" height="1" width="1" x="28" y="26" /><rect fill="#3e82f1" height="1" width="1" x="9" y="27" /><rect fill="#3e82f1" height="1" width="1" x="10" y="27" /><rect fill="#3e82f1" height="1" width="1" x="11" y="27" /><rect fill="#3e82f1" height="1" width="1" x="12" y="27" /><rect fill="#b9d3e4" height="1" width="1" x="13" y="27" /><rect fill="#b9d3e4" height="1" width="1" x="14" y="27" /><rect fill="#b9d3e4" height="1" width="1" x="15" y="27" /><rect fill="#3e82f1" height="1" width="1" x="16" y="27" /><rect fill="#3e82f1" height="1" width="1" x="17" y="27" /><rect fill="#3e82f1" height="1" width="1" x="18" y="27" /><rect fill="#3e82f1" height="1" width="1" x="19" y="27" /><rect fill="#3e82f1" height="1" width="1" x="20" y="27" /><rect fill="#3e82f1" height="1" width="1" x="21" y="27" /><rect fill="#3e82f1" height="1" width="1" x="22" y="27" /><rect fill="#3e82f1" height="1" width="1" x="23" y="27" /><rect fill="#3e82f1" height="1" width="1" x="25" y="27" /><rect fill="#3e82f1" height="1" width="1" x="27" y="27" /><rect fill="#3e82f1" height="1" width="1" x="28" y="27" /><rect fill="#3e82f1" height="1" width="1" x="9" y="28" /><rect fill="#3e82f1" height="1" width="1" x="10" y="28" /><rect fill="#3e82f1" height="1" width="1" x="11" y="28" /><rect fill="#3e82f1" height="1" width="1" x="12" y="28" /><rect fill="#3e82f1" height="1" width="1" x="13" y="28" /><rect fill="#b9d3e4" height="1" width="1" x="14" y="28" /><rect fill="#b9d3e4" height="1" width="1" x="15" y="28" /><rect fill="#b9d3e4" height="1" width="1" x="16" y="28" /><rect fill="#b9d3e4" height="1" width="1" x="17" y="28" /><rect fill="#3e82f1" height="1" width="1" x="18" y="28" /><rect fill="#3e82f1" height="1" width="1" x="19" y="28" /><rect fill="#3e82f1" height="1" width="1" x="20" y="28" /><rect fill="#3e82f1" height="1" width="1" x="21" y="28" /><rect fill="#3e82f1" height="1" width="1" x="22" y="28" /><rect fill="#3e82f1" height="1" width="1" x="25" y="28" /><rect fill="#3e82f1" height="1" width="1" x="26" y="28" /><rect fill="#3e82f1" height="1" width="1" x="27" y="28" /><rect fill="#3e82f1" height="1" width="1" x="28" y="28" /><rect fill="#3e82f1" height="1" width="1" x="12" y="29" /><rect fill="#3e82f1" height="1" width="1" x="13" y="29" /><rect fill="#3e82f1" height="1" width="1" x="14" y="29" /><rect fill="#3e82f1" height="1" width="1" x="15" y="29" /><rect fill="#3e82f1" height="1" width="1" x="16" y="29" /><rect fill="#3e82f1" height="1" width="1" x="17" y="29" /><rect fill="#3e82f1" height="1" width="1" x="18" y="29" /><rect fill="#3e82f1" height="1" width="1" x="19" y="29" /><rect fill="#3e82f1" height="1" width="1" x="26" y="29" /><rect fill="#3e82f1" height="1" width="1" x="27" y="29" /></svg>